<?xml version="1.0" encoding="UTF-8"?>
<!DOCTYPE svg PUBLIC "-//W3C//DTD SVG 1.1//EN" "http://www.w3.org/Graphics/SVG/1.1/DTD/svg11.dtd">
<!-- Creator: CorelDRAW 2018 (64-Bit Evaluation Version) -->
<svg xmlns="http://www.w3.org/2000/svg" xml:space="preserve" width="100px" height="88px" version="1.1" style="shape-rendering:geometricPrecision; text-rendering:geometricPrecision; image-rendering:optimizeQuality; fill-rule:evenodd; clip-rule:evenodd"
viewBox="0 0 100 88"
 xmlns:xlink="http://www.w3.org/1999/xlink">
 <defs>
  <style type="text/css">
   <![CDATA[
    .fil0 {fill:#A67401}
   ]]>
  </style>
 </defs>
 <g id="Layer_x0020_1">
  <metadata id="CorelCorpID_0Corel-Layer"/>
  <path class="fil0" d="M3.18 16.96l92.86 0c1.97,0 3.57,-1.59 3.57,-3.57l0 -8.93c0,-1.97 -1.6,-3.57 -3.57,-3.57l-92.86 0c-1.98,0 -3.57,1.6 -3.57,3.57l0 8.93c0,1.98 1.59,3.57 3.57,3.57zm0 35.72l92.86 0c1.97,0 3.57,-1.6 3.57,-3.57l0 -8.93c0,-1.97 -1.6,-3.57 -3.57,-3.57l-92.86 0c-1.98,0 -3.57,1.6 -3.57,3.57l0 8.93c0,1.97 1.59,3.57 3.57,3.57zm0 35.71l92.86 0c1.97,0 3.57,-1.6 3.57,-3.57l0 -8.93c0,-1.97 -1.6,-3.57 -3.57,-3.57l-92.86 0c-1.98,0 -3.57,1.6 -3.57,3.57l0 8.93c0,1.97 1.59,3.57 3.57,3.57z"/>
 </g>
</svg>
