<?xml version="1.0" encoding="UTF-8"?>
<!DOCTYPE svg PUBLIC "-//W3C//DTD SVG 1.1//EN" "http://www.w3.org/Graphics/SVG/1.1/DTD/svg11.dtd">
<!-- Creator: CorelDRAW 2018 (64-Bit Evaluation Version) -->
<svg xmlns="http://www.w3.org/2000/svg" xml:space="preserve" width="100px" height="88px" version="1.1" style="shape-rendering:geometricPrecision; text-rendering:geometricPrecision; image-rendering:optimizeQuality; fill-rule:evenodd; clip-rule:evenodd"
viewBox="0 0 100 88"
 xmlns:xlink="http://www.w3.org/1999/xlink"
 aria-hidden="true"
 focusable="false"
 data-prefix="far"
 data-icon="clock"
 role="img">
 <defs>
  <style type="text/css">
   <![CDATA[
    .fil0 {fill:#A67401}
   ]]>
  </style>
 </defs>
 <g id="Layer_x0020_1">
  <metadata id="CorelCorpID_0Corel-Layer"/>
  <g id="_1542971455136">
   <path class="fil0" d="M52.19 2.08c-23.55,0 -42.63,19.08 -42.63,42.63 0,23.55 19.08,42.62 42.63,42.62 23.55,0 42.62,-19.07 42.62,-42.62 0,-23.55 -19.07,-42.63 -42.62,-42.63zm0 77c-18.99,0 -34.38,-15.38 -34.38,-34.37 0,-18.99 15.39,-34.38 34.38,-34.38 18.99,0 34.37,15.39 34.37,34.38 0,18.99 -15.38,34.37 -34.37,34.37zm10.62 -17.94l-14.59 -10.6c-0.53,-0.4 -0.84,-1.02 -0.84,-1.67l0 -28.22c0,-1.14 0.92,-2.07 2.06,-2.07l5.5 0c1.13,0 2.06,0.93 2.06,2.07l0 24.35 11.48 8.35c0.93,0.67 1.12,1.96 0.45,2.89l-3.23 4.45c-0.67,0.91 -1.96,1.12 -2.89,0.45l0 0z"/>
  </g>
 </g>
</svg>
