<?xml version="1.0" encoding="UTF-8"?>
<!DOCTYPE svg PUBLIC "-//W3C//DTD SVG 1.1//EN" "http://www.w3.org/Graphics/SVG/1.1/DTD/svg11.dtd">
<!-- Creator: CorelDRAW 2018 (64-Bit Evaluation Version) -->
<svg xmlns="http://www.w3.org/2000/svg" xml:space="preserve" width="500px" height="500px" version="1.1" style="shape-rendering:geometricPrecision; text-rendering:geometricPrecision; image-rendering:optimizeQuality; fill-rule:evenodd; clip-rule:evenodd"
viewBox="0 0 500 500"
 xmlns:xlink="http://www.w3.org/1999/xlink">
 <defs>
  <style type="text/css">
   <![CDATA[
    .str0 {stroke:#F8F8F8;stroke-width:0.9;stroke-miterlimit:22.9256}
    .fil1 {fill:#A67C1D}
    .fil0 {fill:#F8F8F8}
   ]]>
  </style>
 </defs>
 <g id="Layer_x0020_1">
  <metadata id="CorelCorpID_0Corel-Layer"/>
  <g id="_2374762764368">
   <path class="fil0" d="M164.93 357.49l167.14 0 0 17.14 -167.14 0 0 -17.14zm94.28 -59.99l-4.28 0 0 -4.29 -4.29 0 0 -4.29 -4.28 0 0 -4.28 -4.29 0 0 -4.29 -4.28 0 0 -4.28 -8.57 0 0 4.28 -4.29 0 0 4.29 -4.28 0 0 4.28 -4.29 0 0 4.29 -4.28 0 0 4.29 -4.29 0 0 4.28 -4.29 0 0 4.29 -4.28 0 0 4.28 -4.29 0 0 4.29 -4.28 0 0 4.28 -4.29 0 0 4.29 -4.28 0 0 4.28 -4.29 0 0 4.29 -4.28 0 0 -4.29 -4.29 0 0 -4.28 -4.29 0 0 -4.29 -4.28 0 0 -4.28 4.28 0 0 -4.29 4.29 0 0 -4.28 4.29 0 0 -4.29 4.28 0 0 -4.28 4.29 0 0 -4.29 4.28 0 0 -4.29 4.29 0 0 -4.28 4.28 0 0 -4.29 4.29 0 0 -4.28 4.28 0 0 -4.29 4.29 0 0 -4.28 4.29 0 0 -4.29 4.28 0 0 -4.28 4.29 0 0 -4.29 4.28 0 0 -4.28 4.29 0 0 -4.29 8.57 0 0 4.29 4.28 0 0 4.28 4.29 0 0 4.29 4.28 0 0 4.28 4.29 0 0 4.29 4.28 0 0 4.28 4.29 0 0 4.29 4.29 0 0 -4.29 4.28 0 0 -4.28 4.29 0 0 -4.29 4.28 0 0 -4.28 4.29 0 0 -4.29 4.28 0 0 -4.28 4.29 0 0 -4.29 4.28 0 0 -4.28 4.29 0 0 -4.29 4.28 0 0 -4.29 -8.57 0 0 -17.14 47.14 0 0 42.86 -21.42 0 0 -8.57 -4.29 0 0 4.28 -4.28 0 0 4.29 -4.29 0 0 4.28 -4.29 0 0 4.29 -4.28 0 0 4.28 -4.29 0 0 4.29 -4.28 0 0 4.28 -4.29 0 0 4.29 -4.28 0 0 4.28 -4.29 0 0 4.29 -4.28 0 0 4.29 -4.29 0 0 4.28 -12.86 0 0 -4.28zm-94.28 -124.28l98.57 0 0 17.14 -98.57 0 0 -17.14zm0 -42.86l98.57 0 0 17.15 -98.57 0 0 -17.15zm201.42 51.43l-81.42 0 0 -4.29 -4.29 0 0 -81.42 -149.99 0 0 312.84 235.7 0 0 -227.13z"/>
   <path class="fil1" d="M280.64 173.22l4.29 0 0 4.28 4.28 0 0 4.29 81.43 0 0 231.41 -244.27 0 0 -321.4 154.27 0 0 81.42zm30 -55.71l4.29 0 0 4.28 4.28 0 0 4.29 4.29 0 0 4.28 4.28 0 0 4.29 4.29 0 0 4.29 4.28 0 0 4.28 4.29 0 0 4.29 4.28 0 0 4.28 -34.28 0 0 -34.28zm-209.98 321.41l295.69 0 0 -282.84 -4.29 0 0 -4.29 -4.28 0 0 -4.28 -4.29 0 0 -4.29 -4.28 0 0 -4.28 -4.29 0 0 -4.29 -4.28 0 0 -4.29 -4.29 0 0 -4.28 -4.29 0 0 -4.29 -4.28 0 0 -4.28 -4.29 0 0 -4.29 -4.28 0 0 -4.28 -4.29 0 0 -4.29 -4.28 0 0 -4.28 -4.29 0 0 -4.29 -4.28 0 0 -4.28 -4.29 0 0 -4.29 -4.28 0 0 -4.29 -4.29 0 0 -4.28 -4.28 0 0 -4.28 -4.29 0 0 -4.29 -4.29 0 0 -4.29 -205.69 0 0 372.84z"/>
   <polygon class="fil1" points="177.79,327.49 177.79,323.21 182.08,323.21 182.08,318.92 186.36,318.92 186.36,314.64 190.65,314.64 190.65,310.35 194.93,310.35 194.93,306.07 199.22,306.07 199.22,301.78 203.5,301.78 203.5,297.5 207.79,297.5 207.79,293.21 212.08,293.21 212.08,288.92 216.36,288.92 216.36,284.64 220.65,284.64 220.65,280.35 224.93,280.35 224.93,276.07 229.22,276.07 229.22,271.78 237.79,271.78 237.79,276.07 242.07,276.07 242.07,280.35 246.36,280.35 246.36,284.64 250.64,284.64 250.64,288.92 254.93,288.92 254.93,293.21 259.21,293.21 259.21,297.5 263.5,297.5 263.5,301.78 272.07,301.78 272.07,297.5 276.36,297.5 276.36,293.21 280.64,293.21 280.64,288.92 284.93,288.92 284.93,284.64 289.21,284.64 289.21,280.35 293.5,280.35 293.5,276.07 297.78,276.07 297.78,271.78 302.07,271.78 302.07,267.5 306.35,267.5 306.35,263.21 310.64,263.21 310.64,258.93 314.93,258.93 314.93,254.64 319.21,254.64 319.21,250.36 323.5,250.36 323.5,258.93 340.64,258.93 340.64,216.07 297.78,216.07 297.78,233.21 306.35,233.21 306.35,237.5 302.07,237.5 302.07,241.79 297.78,241.79 297.78,246.07 293.5,246.07 293.5,250.36 289.21,250.36 289.21,254.64 284.93,254.64 284.93,258.93 280.64,258.93 280.64,263.21 276.36,263.21 276.36,267.5 272.07,267.5 272.07,271.78 267.79,271.78 267.79,276.07 263.5,276.07 263.5,271.78 259.21,271.78 259.21,267.5 254.93,267.5 254.93,263.21 250.64,263.21 250.64,258.93 246.36,258.93 246.36,254.64 242.07,254.64 242.07,250.36 237.79,250.36 237.79,246.07 229.22,246.07 229.22,250.36 224.93,250.36 224.93,254.64 220.65,254.64 220.65,258.93 216.36,258.93 216.36,263.21 212.08,263.21 212.08,267.5 207.79,267.5 207.79,271.78 203.5,271.78 203.5,276.07 199.22,276.07 199.22,280.35 194.93,280.35 194.93,284.64 190.65,284.64 190.65,288.92 186.36,288.92 186.36,293.21 182.08,293.21 182.08,297.5 177.79,297.5 177.79,301.78 173.51,301.78 173.51,306.07 169.22,306.07 169.22,310.35 164.93,310.35 164.93,314.64 160.65,314.64 160.65,318.92 164.93,318.92 164.93,323.21 169.22,323.21 169.22,327.49 "/>
   <polygon class="fil1" points="396.35,160.36 396.35,438.92 100.66,438.92 100.66,66.08 302.07,66.08 302.07,61.8 96.37,61.8 96.37,443.2 400.63,443.2 400.63,160.36 "/>
   <polygon class="fil0 str0" points="366.35,181.79 366.35,408.92 130.65,408.92 130.65,96.08 280.64,96.08 280.64,91.8 126.37,91.8 126.37,413.2 370.64,413.2 370.64,181.79 "/>
   <polygon class="fil1" points="164.93,374.63 332.07,374.63 332.07,357.49 164.93,357.49 "/>
   <polygon class="fil1" points="164.93,147.51 263.5,147.51 263.5,130.36 164.93,130.36 "/>
   <polygon class="fil1" points="164.93,190.36 263.5,190.36 263.5,173.22 164.93,173.22 "/>
   <polygon class="fil0" points="310.64,151.79 344.92,151.79 344.92,147.51 340.64,147.51 340.64,143.22 336.35,143.22 336.35,138.94 332.07,138.94 332.07,134.65 327.78,134.65 327.78,130.36 323.5,130.36 323.5,126.08 319.21,126.08 319.21,121.79 314.93,121.79 314.93,117.51 310.64,117.51 "/>
   <polygon class="fil0 str0" points="340.64,216.07 340.64,258.93 344.92,258.93 344.92,216.07 "/>
   <polygon class="fil0" points="237.79,276.07 237.79,271.78 229.22,271.78 229.22,276.07 "/>
   <polygon class="fil1" points="284.93,177.5 284.93,173.22 280.64,173.22 280.64,177.5 "/>
   <polygon class="fil0 str0" points="229.22,276.07 224.93,276.07 224.93,280.35 229.22,280.35 "/>
   <polygon class="fil0" points="199.22,306.07 194.93,306.07 194.93,310.35 199.22,310.35 "/>
   <polygon class="fil0" points="186.36,318.92 182.08,318.92 182.08,323.21 186.36,323.21 "/>
   <polygon class="fil0 str0" points="182.08,323.21 177.79,323.21 177.79,327.49 182.08,327.49 "/>
   <polygon class="fil0" points="177.79,327.49 173.51,327.49 173.51,331.78 177.79,331.78 "/>
   <polygon class="fil0" points="263.5,301.78 263.5,297.5 259.21,297.5 259.21,301.78 "/>
   <polygon class="fil0" points="207.79,297.5 203.5,297.5 203.5,301.78 207.79,301.78 "/>
   <polygon class="fil0" points="259.21,297.5 259.21,293.21 254.93,293.21 254.93,297.5 "/>
   <polygon class="fil0" points="212.08,293.21 207.79,293.21 207.79,297.5 212.08,297.5 "/>
   <polygon class="fil0 str0" points="254.93,293.21 254.93,288.92 250.64,288.92 250.64,293.21 "/>
   <polygon class="fil0" points="246.36,284.64 246.36,280.35 242.07,280.35 242.07,284.64 "/>
   <polygon class="fil0 str0" points="224.93,280.35 220.65,280.35 220.65,284.64 224.93,284.64 "/>
   <polygon class="fil0 str0" points="203.5,301.78 199.22,301.78 199.22,306.07 203.5,306.07 "/>
   <polygon class="fil1" points="289.21,181.79 289.21,177.5 284.93,177.5 284.93,181.79 "/>
   <polygon class="fil0" points="242.07,280.35 242.07,276.07 237.79,276.07 237.79,280.35 "/>
   <polygon class="fil0 str0" points="194.93,310.35 190.65,310.35 190.65,314.64 194.93,314.64 "/>
   <polygon class="fil0" points="190.65,314.64 186.36,314.64 186.36,318.92 190.65,318.92 "/>
   <polygon class="fil0 str0" points="216.36,288.92 212.08,288.92 212.08,293.21 216.36,293.21 "/>
   <polygon class="fil0 str0" points="250.64,288.92 250.64,284.64 246.36,284.64 246.36,288.92 "/>
   <polygon class="fil0" points="220.65,284.64 216.36,284.64 216.36,288.92 220.65,288.92 "/>
  </g>
 </g>
</svg>
