<?xml version="1.0" encoding="UTF-8"?>
<!DOCTYPE svg PUBLIC "-//W3C//DTD SVG 1.1//EN" "http://www.w3.org/Graphics/SVG/1.1/DTD/svg11.dtd">
<!-- Creator: CorelDRAW 2018 (64-Bit Evaluation Version) -->
<svg xmlns="http://www.w3.org/2000/svg" xml:space="preserve" width="1000px" height="500px" version="1.1" style="shape-rendering:geometricPrecision; text-rendering:geometricPrecision; image-rendering:optimizeQuality; fill-rule:evenodd; clip-rule:evenodd"
viewBox="0 0 1000 500"
 xmlns:xlink="http://www.w3.org/1999/xlink">
 <defs>
  <style type="text/css">
   <![CDATA[
    .str0 {stroke:#F8F8F8;stroke-width:2.36;stroke-miterlimit:22.9256}
    .str1 {stroke:#A67C1D;stroke-width:0.9;stroke-miterlimit:22.9256}
    .fil1 {fill:#A67C1D}
    .fil0 {fill:#F8F8F8}
   ]]>
  </style>
 </defs>
 <g id="Layer_x0020_1">
  <metadata id="CorelCorpID_0Corel-Layer"/>
  <rect class="fil0 str0" x="-2" y="-2" width="1000" height="500"/>
  <g id="_2374764344704">
   <path class="fil0" d="M827.29 259.81c-16.35,-11.48 -40.26,-69.45 -76.63,-46.43l-53.9 44.35c-7.83,9.67 -3.99,11.89 -12.66,23.47l-21.63 -2.23c-10.99,-34.85 5.41,-14.46 46.39,-45.92 17.73,-13.62 34.51,-22.92 43.14,-38.48 6.98,-12.58 -2.37,-8.86 14.29,-16.42 18.8,-2.86 14.67,9.4 22.53,22.43 12.69,21.03 37.25,39.25 65.63,14.55 30.48,-26.53 15.52,-18.86 24.55,-33.26 7.87,-12.53 23.65,-11.11 27.9,3.12 8.54,28.55 -16.33,3.6 -52.64,46.21 -14.84,17.41 0.3,22.04 -26.97,28.61zm-199.24 62.14l317.34 0.55 -0.56 -209.03 -318.18 -0.04 1.4 208.52z"/>
   <path class="fil1" d="M626.65 113.43l318.18 0.04 0.56 209.03 -317.34 -0.55 -1.4 -208.52zm-28.9 -3.75l0 224.94c0,29.07 12.19,29.74 40.94,29.74l294.47 0c28.89,0 40.94,1.27 40.94,-29.74 0,-285.8 20.84,-256.87 -77.75,-256.84l-220.85 0c-37.54,-0.01 -77.75,-10 -77.75,31.9z"/>
   <path class="fil0" d="M299.16 219.52c-8.35,-8.36 -2.57,-19.2 13.39,-13.41 4.55,14.74 -4.36,22.44 -13.39,13.41zm-16.93 -61.03c-19.45,-31.04 33.88,-54.3 51.11,-26.02 15.36,25.21 -14.6,58.58 -36.25,59.93 -5.93,-28.97 20.62,-28.18 18.8,-45.6 -4.57,-3.58 8.29,-9.77 -11.53,-3.26 -18.6,6.1 6.62,14.83 -22.13,14.95zm-82.27 124.64c31.62,-23.31 21.31,-28.82 74.01,-28.46 146.71,0.98 140.86,10.98 140.57,-67.28 -0.09,-23.95 7.02,-83.42 -9.47,-98.4 -12.16,-11.03 -173.09,-12.62 -191.12,-2.58 -21.67,12.08 -13.77,60.8 -13.76,88.71 0,35.95 0.35,72.07 -0.23,108.01z"/>
   <path class="fil1" d="M199.96 283.13c0.58,-35.94 0.23,-72.06 0.23,-108.01 -0.01,-27.91 -7.91,-76.63 13.76,-88.71 18.03,-10.04 178.96,-8.45 191.12,2.58 16.49,14.98 9.38,74.45 9.47,98.4 0.29,78.26 6.14,68.26 -140.57,67.28 -52.7,-0.36 -42.39,5.15 -74.01,28.46zm-20.48 -104.11c-60.79,3.6 -122.12,-10.86 -146.5,20.92 -14.54,18.96 -15.41,123.08 -9.47,152.81 15.9,79.59 164.35,17.71 203.79,49.04 14.61,11.6 26.22,40.03 47.66,31.87 8.56,-18.11 7.18,-116.49 0.49,-136.32 -25.07,1.74 -17.96,12.65 -17.59,41.31 0.28,21.03 -0.05,42.04 0.29,63.1 -46.92,-35.4 -13.49,-28.76 -106.8,-28.76 -64.54,0 -104.94,11.54 -107.85,-33.97 -1.57,-24.52 -3.82,-116.97 7.08,-129.84 13.09,-15.47 101.09,-9.6 128.36,-8.35 1.44,22.08 -9.99,106.72 7.06,115.96 12.74,6.91 25.92,-15.41 34.63,-23.23 43.13,-38.7 84.42,-6.09 172.12,-19.1 41.82,-6.2 43.21,-39.73 43.08,-82.96 -0.4,-129.37 10.38,-130.05 -120.88,-130.05 -132.47,0 -134.18,-15.53 -135.47,117.57z"/>
   <path class="fil1" d="M701.54 419l170.07 1.08c-5.03,-12.84 -15.03,-18.57 -24.21,-28.29 -24,-25.37 -25.21,-18.97 -86.01,-18.97 -23.99,0 -51.39,24.78 -59.85,46.18z"/>
   <path class="fil1" d="M827.29 259.81c27.27,-6.57 12.13,-11.2 26.97,-28.61 36.31,-42.61 61.18,-17.66 52.64,-46.21 -4.25,-14.23 -20.03,-15.65 -27.9,-3.12 -9.03,14.4 5.93,6.73 -24.55,33.26 -28.38,24.7 -52.94,6.48 -65.63,-14.55 -7.86,-13.03 -3.73,-25.29 -22.53,-22.43 -16.66,7.56 -7.31,3.84 -14.29,16.42 -8.63,15.56 -25.41,24.86 -43.14,38.48 -40.98,31.46 -57.38,11.07 -46.39,45.92l21.63 2.23c8.67,-11.58 4.83,-13.8 12.66,-23.47l53.9 -44.35c36.37,-23.02 60.28,34.95 76.63,46.43z"/>
   <path class="fil1" d="M282.23 158.49c28.75,-0.12 3.53,-8.85 22.13,-14.95 19.82,-6.51 6.96,-0.32 11.53,3.26 1.82,17.42 -24.73,16.63 -18.8,45.6 21.65,-1.35 51.61,-34.72 36.25,-59.93 -17.23,-28.28 -70.56,-5.02 -51.11,26.02z"/>
   <path class="fil1" d="M125.96 276.13l1.2 16.29c31.35,4.42 19.2,-26.13 -1.2,-16.29z"/>
   <path class="fil1 str1" d="M92.62 291.16c8.26,3.28 11.02,3.37 14.7,-0.7 8.13,-21.92 -23.37,-22.62 -14.7,0.7z"/>
   <path class="fil1 str1" d="M312.55 206.11c-15.96,-5.79 -21.74,5.05 -13.39,13.41 9.03,9.03 17.94,1.33 13.39,-13.41z"/>
  </g>
 </g>
</svg>
